<svg xmlns="http://www.w3.org/2000/svg" xmlns:xlink="http://www.w3.org/1999/xlink" width="500" zoomAndPan="magnify" viewBox="0 0 375 374.999991" height="500" preserveAspectRatio="xMidYMid meet" version="1.2"><defs/><g id="cf91198bcd"><g style="fill:#ffffff;fill-opacity:1;"><g transform="translate(51.884415, 325.825226)"><path style="stroke:none" d="M 117.5625 6.265625 C 117.5625 6.265625 113.988281 4.785156 106.84375 1.828125 C 99.707031 -1.128906 90.828125 -6.003906 80.203125 -12.796875 C 69.578125 -19.585938 58.953125 -28.46875 48.328125 -39.4375 C 37.703125 -50.414062 28.816406 -63.914062 21.671875 -79.9375 C 14.535156 -95.96875 10.96875 -114.609375 10.96875 -135.859375 C 10.96875 -157.453125 14.535156 -176.257812 21.671875 -192.28125 C 28.816406 -208.3125 37.703125 -221.984375 48.328125 -233.296875 C 58.953125 -244.617188 69.578125 -253.847656 80.203125 -260.984375 C 90.828125 -268.128906 99.707031 -273.359375 106.84375 -276.671875 C 113.988281 -279.984375 117.5625 -281.640625 117.5625 -281.640625 C 117.5625 -281.640625 115.90625 -280.070312 112.59375 -276.9375 C 109.289062 -273.800781 105.460938 -267.441406 101.109375 -257.859375 C 96.753906 -248.285156 92.921875 -233.914062 89.609375 -214.75 C 86.296875 -195.59375 84.640625 -169.988281 84.640625 -137.9375 C 84.640625 -105.894531 86.296875 -80.207031 89.609375 -60.875 C 92.921875 -41.539062 96.753906 -27.082031 101.109375 -17.5 C 105.460938 -7.925781 109.289062 -1.570312 112.59375 1.5625 C 115.90625 4.695312 117.5625 6.265625 117.5625 6.265625 Z M 216.328125 -183.921875 C 207.617188 -183.921875 200.128906 -186.96875 193.859375 -193.0625 C 187.585938 -199.164062 184.453125 -206.570312 184.453125 -215.28125 C 184.453125 -224.332031 187.585938 -231.90625 193.859375 -238 C 200.128906 -244.101562 207.617188 -247.15625 216.328125 -247.15625 C 225.378906 -247.15625 232.953125 -244.101562 239.046875 -238 C 245.140625 -231.90625 248.1875 -224.332031 248.1875 -215.28125 C 248.1875 -206.570312 245.140625 -199.164062 239.046875 -193.0625 C 232.953125 -186.96875 225.378906 -183.921875 216.328125 -183.921875 Z M 171.90625 6.265625 C 171.90625 6.265625 173.125 1.476562 175.5625 -8.09375 C 178 -17.675781 180.347656 -32.046875 182.609375 -51.203125 C 184.878906 -70.359375 186.015625 -94.046875 186.015625 -122.265625 L 248.71875 -122.265625 C 248.71875 -117.734375 248.71875 -115.378906 248.71875 -115.203125 C 248.71875 -115.035156 248.71875 -115.300781 248.71875 -116 C 248.71875 -116.695312 248.71875 -116.695312 248.71875 -116 C 248.71875 -115.300781 248.71875 -112.335938 248.71875 -107.109375 C 248.71875 -101.890625 248.71875 -93.09375 248.71875 -80.71875 C 248.71875 -68.351562 248.71875 -50.851562 248.71875 -28.21875 L 248.1875 -28.21875 C 240.53125 -32.394531 232 -34.484375 222.59375 -34.484375 C 209.007812 -34.484375 198.734375 -31.695312 191.765625 -26.125 C 184.796875 -20.550781 178.175781 -9.753906 171.90625 6.265625 Z M 171.90625 6.265625 "/></g></g></g></svg>