<svg xmlns="http://www.w3.org/2000/svg" xmlns:xlink="http://www.w3.org/1999/xlink" width="500" zoomAndPan="magnify" viewBox="0 0 375 374.999991" height="500" preserveAspectRatio="xMidYMid meet" version="1.2"><defs><clipPath id="c3c23a9e3a"><rect x="0" width="257" y="0" height="375"/></clipPath></defs><g id="826730027b"><g transform="matrix(1,0,0,1,48,0)"><g clip-path="url(#c3c23a9e3a)"><g style="fill:#23284e;fill-opacity:1;"><g transform="translate(1.502354, 322.348365)"><path style="stroke:none" d="M 119.625 6.375 C 119.625 6.375 115.988281 4.867188 108.71875 1.859375 C 101.457031 -1.148438 92.421875 -6.109375 81.609375 -13.015625 C 70.796875 -19.929688 59.984375 -28.972656 49.171875 -40.140625 C 38.367188 -51.304688 29.332031 -65.039062 22.0625 -81.34375 C 14.800781 -97.65625 11.171875 -116.617188 11.171875 -138.234375 C 11.171875 -160.210938 14.800781 -179.351562 22.0625 -195.65625 C 29.332031 -211.96875 38.367188 -225.878906 49.171875 -237.390625 C 59.984375 -248.910156 70.796875 -258.304688 81.609375 -265.578125 C 92.421875 -272.847656 101.457031 -278.164062 108.71875 -281.53125 C 115.988281 -284.894531 119.625 -286.578125 119.625 -286.578125 C 119.625 -286.578125 117.941406 -284.984375 114.578125 -281.796875 C 111.210938 -278.609375 107.3125 -272.140625 102.875 -262.390625 C 98.445312 -252.640625 94.550781 -238.015625 91.1875 -218.515625 C 87.820312 -199.023438 86.140625 -172.972656 86.140625 -140.359375 C 86.140625 -107.753906 87.820312 -81.613281 91.1875 -61.9375 C 94.550781 -42.269531 98.445312 -27.5625 102.875 -17.8125 C 107.3125 -8.0625 111.210938 -1.59375 114.578125 1.59375 C 117.941406 4.78125 119.625 6.375 119.625 6.375 Z M 220.125 -187.15625 C 211.257812 -187.15625 203.632812 -190.253906 197.25 -196.453125 C 190.875 -202.660156 187.6875 -210.195312 187.6875 -219.0625 C 187.6875 -228.269531 190.875 -235.972656 197.25 -242.171875 C 203.632812 -248.378906 211.257812 -251.484375 220.125 -251.484375 C 229.332031 -251.484375 237.035156 -248.378906 243.234375 -242.171875 C 249.441406 -235.972656 252.546875 -228.269531 252.546875 -219.0625 C 252.546875 -210.195312 249.441406 -202.660156 243.234375 -196.453125 C 237.035156 -190.253906 229.332031 -187.15625 220.125 -187.15625 Z M 174.921875 6.375 C 174.921875 6.375 176.160156 1.503906 178.640625 -8.234375 C 181.128906 -17.984375 183.523438 -32.601562 185.828125 -52.09375 C 188.128906 -71.59375 189.28125 -95.703125 189.28125 -124.421875 L 253.078125 -124.421875 C 253.078125 -119.804688 253.078125 -117.410156 253.078125 -117.234375 C 253.078125 -117.054688 253.078125 -117.320312 253.078125 -118.03125 C 253.078125 -118.738281 253.078125 -118.738281 253.078125 -118.03125 C 253.078125 -117.320312 253.078125 -114.304688 253.078125 -108.984375 C 253.078125 -103.671875 253.078125 -94.722656 253.078125 -82.140625 C 253.078125 -69.554688 253.078125 -51.75 253.078125 -28.71875 L 252.546875 -28.71875 C 244.753906 -32.96875 236.070312 -35.09375 226.5 -35.09375 C 212.675781 -35.09375 202.21875 -32.253906 195.125 -26.578125 C 188.039062 -20.910156 181.304688 -9.925781 174.921875 6.375 Z M 174.921875 6.375 "/></g></g></g></g></g></svg>